<svg width="187" height="148" viewBox="0 0 187 148" fill="none" xmlns="http://www.w3.org/2000/svg">
<ellipse cx="92.5393" cy="91.5125" rx="75.5" ry="55.5" fill="#E2B714"/>
<path d="M26.5393 0.0124582C12.1393 27.2125 20.5393 54.6791 26.5393 65.0125L158.539 64.0125C172.539 34.0125 164.373 8.84579 158.539 0.0124582C132.139 2.81246 112.206 24.1791 105.539 34.5125C95.5393 30.9125 84.3727 32.3458 80.0393 33.5125C57.2393 5.91246 34.8727 -0.320875 26.5393 0.0124582Z" fill="#E2B714"/>
<circle cx="67.5" cy="68.5" r="12.5" fill="#323437"/>
<circle cx="117.5" cy="69.5" r="12.5" fill="#323437"/>
<circle cx="72" cy="63" r="5" fill="#D9D9D9"/>
<circle cx="113" cy="64" r="5" fill="#D9D9D9"/>
<ellipse cx="118.371" cy="69.4981" rx="1.5" ry="2" transform="rotate(34.6513 118.371 69.4981)" fill="#D9D9D9"/>
<ellipse cx="68.4572" cy="69.4879" rx="1.5" ry="2" transform="rotate(-42.5134 68.4572 69.4879)" fill="#D9D9D9"/>
<rect y="88.8907" width="27.1348" height="8.74905" transform="rotate(-7.55818 0 88.8907)" fill="#E2B714"/>
<rect x="4.03931" y="111.139" width="27.1348" height="8.74905" transform="rotate(-31.3741 4.03931 111.139)" fill="#E2B714"/>
<rect x="175.758" y="118.84" width="27.1348" height="8.74905" transform="rotate(-150.939 175.758 118.84)" fill="#E2B714"/>
<rect x="184.96" y="97.0918" width="27.1348" height="8.74905" transform="rotate(-172.804 184.96 97.0918)" fill="#E2B714"/>
<path d="M93.5 105L87.5 97H99.5L93.5 105Z" fill="#010101" stroke="black"/>
<path d="M80.9857 117.142C82.7995 114.149 87.794 107.69 93.2618 105.802C95.9495 105.398 101.53 106.68 102.351 115.046" stroke="black" stroke-width="4"/>
</svg>
