<svg width="187" height="148" viewBox="0 0 187 148" fill="none" xmlns="http://www.w3.org/2000/svg">
<ellipse cx="92.5393" cy="91.5125" rx="75.5" ry="55.5" fill="#E2B714"/>
<path d="M26.5393 0.0124582C12.1393 27.2125 20.5393 54.6791 26.5393 65.0125L158.539 64.0125C172.539 34.0125 164.373 8.84579 158.539 0.0124582C132.139 2.81246 112.206 24.1791 105.539 34.5125C95.5393 30.9125 84.3727 32.3458 80.0393 33.5125C57.2393 5.91246 34.8727 -0.320875 26.5393 0.0124582Z" fill="#E2B714"/>
<path d="M110.039 118.012C101.239 118.812 94.706 112.012 92.5393 108.512V89.5125H102.039L95.5393 103.012C98.3393 111.012 106.373 112.679 110.039 112.512C119.639 111.312 123.039 102.346 123.539 98.0125H128.039C129.039 106.512 121.039 117.012 110.039 118.012Z" fill="#323437"/>
<path d="M110.039 118.012C101.239 118.812 94.706 112.012 92.5393 108.512V89.5125H102.039L95.5393 103.012C98.3393 111.012 106.373 112.679 110.039 112.512C119.639 111.312 123.039 102.346 123.539 98.0125H128.039C129.039 106.512 121.039 117.012 110.039 118.012Z" fill="#323437"/>
<path d="M75.1237 118.012C83.9237 118.812 90.457 112.012 92.6237 108.512V89.5125H83.1237L89.6237 103.012C86.8237 111.012 78.7904 112.679 75.1237 112.512C65.5237 111.312 62.1237 102.346 61.6237 98.0125H57.1237C56.1237 106.512 64.1237 117.012 75.1237 118.012Z" fill="#323437"/>
<path d="M75.1237 118.012C83.9237 118.812 90.457 112.012 92.6237 108.512V89.5125H83.1237L89.6237 103.012C86.8237 111.012 78.7904 112.679 75.1237 112.512C65.5237 111.312 62.1237 102.346 61.6237 98.0125H57.1237C56.1237 106.512 64.1237 117.012 75.1237 118.012Z" fill="#323437"/>
<rect y="88.8906" width="27.1348" height="8.74905" transform="rotate(-7.55818 0 88.8906)" fill="#E2B714"/>
<rect x="4.03931" y="111.139" width="27.1348" height="8.74905" transform="rotate(-31.3741 4.03931 111.139)" fill="#E2B714"/>
<rect x="175.758" y="118.84" width="27.1348" height="8.74905" transform="rotate(-150.939 175.758 118.84)" fill="#E2B714"/>
<rect x="184.96" y="97.0918" width="27.1348" height="8.74905" transform="rotate(-172.804 184.96 97.0918)" fill="#E2B714"/>
<path d="M73.4826 69.2931C63.14 72.5041 53.1583 70.9104 49.4603 69.7122C48.8605 69.3376 47.4363 68.9482 46.5373 70.3876C45.4135 72.1868 44.5886 70.8378 50.5859 74.5838C55.3838 77.5806 69.9987 74.2036 76.7064 72.1404C79.9413 69.8535 83.8253 66.0822 73.4826 69.2931Z" fill="#323437"/>
<path d="M107.796 69.0074C118.046 72.5028 128.068 71.1854 131.798 70.0898C132.407 69.7319 133.842 69.382 134.701 70.8457C135.774 72.6752 136.636 71.3496 130.538 74.9285C125.659 77.7916 111.143 74.0122 104.495 71.7646C101.324 69.3891 97.5459 65.512 107.796 69.0074Z" fill="#323437"/>
</svg>
