<svg width="187" height="148" viewBox="0 0 187 148" fill="none" xmlns="http://www.w3.org/2000/svg">
<ellipse cx="92.5393" cy="91.5125" rx="75.5" ry="55.5" fill="#E2B714"/>
<path d="M26.5393 0.0124582C12.1393 27.2125 20.5393 54.6791 26.5393 65.0125L158.539 64.0125C172.539 34.0125 164.373 8.84579 158.539 0.0124582C132.139 2.81246 112.206 24.1791 105.539 34.5125C95.5393 30.9125 84.3727 32.3458 80.0393 33.5125C57.2393 5.91246 34.8727 -0.320875 26.5393 0.0124582Z" fill="#E2B714"/>
<circle cx="64.0393" cy="70.0125" r="10" fill="#323437"/>
<circle cx="121.039" cy="70.0125" r="10" fill="#323437"/>
<path d="M110.039 118.012C101.239 118.812 94.706 112.012 92.5393 108.512V89.5125H102.039L95.5393 103.012C98.3393 111.012 106.373 112.679 110.039 112.512C119.639 111.312 123.039 102.346 123.539 98.0125H128.039C129.039 106.512 121.039 117.012 110.039 118.012Z" fill="#323437"/>
<path d="M110.039 118.012C101.239 118.812 94.706 112.012 92.5393 108.512V89.5125H102.039L95.5393 103.012C98.3393 111.012 106.373 112.679 110.039 112.512C119.639 111.312 123.039 102.346 123.539 98.0125H128.039C129.039 106.512 121.039 117.012 110.039 118.012Z" fill="#323437"/>
<path d="M75.1237 118.012C83.9237 118.812 90.4571 112.012 92.6237 108.512V89.5125H83.1237L89.6237 103.012C86.8237 111.012 78.7904 112.679 75.1237 112.512C65.5237 111.312 62.1237 102.346 61.6237 98.0125H57.1237C56.1237 106.512 64.1237 117.012 75.1237 118.012Z" fill="#323437"/>
<path d="M75.1237 118.012C83.9237 118.812 90.4571 112.012 92.6237 108.512V89.5125H83.1237L89.6237 103.012C86.8237 111.012 78.7904 112.679 75.1237 112.512C65.5237 111.312 62.1237 102.346 61.6237 98.0125H57.1237C56.1237 106.512 64.1237 117.012 75.1237 118.012Z" fill="#323437"/>
<rect y="88.8906" width="27.1348" height="8.74905" transform="rotate(-7.55818 0 88.8906)" fill="#E2B714"/>
<rect x="4.03932" y="111.139" width="27.1348" height="8.74905" transform="rotate(-31.3741 4.03932 111.139)" fill="#E2B714"/>
<rect x="175.758" y="118.84" width="27.1348" height="8.74905" transform="rotate(-150.939 175.758 118.84)" fill="#E2B714"/>
<rect x="184.96" y="97.0918" width="27.1348" height="8.74905" transform="rotate(-172.804 184.96 97.0918)" fill="#E2B714"/>
</svg>
